<svg width="100" height="100" viewBox="0 0 100 100" fill="none" xmlns="http://www.w3.org/2000/svg">
<g clip-path="url(#clip0_602_1000)">
<path d="M50 0C22.4335 0 0 22.4335 0 50C0 77.5665 22.4335 100 50 100C77.5665 100 100 77.5665 100 50C100 22.4335 77.5665 0 50 0ZM50 99.4443C22.7406 99.4443 0.555718 77.2594 0.555718 50C0.555718 22.7406 22.7406 0.555718 50 0.555718C77.2594 0.555718 99.4443 22.7406 99.4443 50C99.4443 77.2594 77.2594 99.4443 50 99.4443Z" fill="#035F1D"/>
<path d="M71.5414 58.0869L89.6315 64.6239L89.8216 64.0975L71.5706 57.502C71.5706 57.6921 71.5706 57.8822 71.5414 58.0869Z" fill="#035F1D"/>
<path d="M92.2492 50.1903V49.6345L68.8798 49.6784C68.5727 49.3421 68.251 49.0203 67.9146 48.7425C67.2858 48.216 66.5546 47.8065 65.7649 47.4555L91.635 42.8343L91.5326 42.2932L64.7997 47.0607C63.5712 46.6366 62.2258 46.3734 60.8511 46.3002L89.7485 35.7123L89.5584 35.2005L59.3156 46.2856C57.8971 46.3295 56.5078 46.5196 55.2355 46.8998C54.5335 47.1046 53.8754 47.3239 53.2319 47.5433C53.2904 47.5287 53.3343 47.514 53.3782 47.4848L57.0488 44.3991C59.2863 43.3169 60.9389 41.8837 61.9333 40.2897L82.4656 22.9893L82.1147 22.5652L62.5475 39.0613C62.8693 38.2569 63.0301 37.4087 63.0155 36.5605C63.0155 36.0194 62.957 35.493 62.8693 35.0104L77.2741 17.7685L76.85 17.4175L62.723 34.323C62.7669 34.4693 62.7815 34.6302 62.8108 34.791C62.5329 33.3725 61.9479 32.1733 61.0851 31.1935L71.2489 13.5129L70.7663 13.235L60.7049 30.7548C59.9298 29.9943 58.9792 29.3801 57.8971 28.8829L64.5949 10.354L64.0685 10.1639L57.3852 28.6635C57.5168 28.722 57.6484 28.7659 57.7654 28.8244C56.6686 28.3564 55.4548 28.0054 54.1094 27.7714L57.4876 8.40903L56.9465 8.32129L53.5683 27.6837C52.3399 27.5082 51.0237 27.4204 49.6344 27.4204H46.2123L42.8049 8.35054L42.2638 8.45291L45.642 27.4204H41.9713L35.6683 10.2224L35.1565 10.4125L41.3864 27.4058H37.1746L28.9997 13.3081L28.5171 13.586L36.5312 27.4058H33.6794V30.2429L22.9453 17.5053L22.5212 17.8562L33.6794 31.0911V36.0194L17.7537 22.6968L17.4028 23.1209L33.7233 36.7507V40.319L13.5127 28.7074L13.2349 29.19L33.7233 40.9624V43.8141L10.3685 35.376L10.1784 35.9025L33.7233 44.4137V46.8998L8.43814 42.498L8.3504 43.039L33.7379 47.4555V52.6471L8.37964 57.166L8.48201 57.7071L33.7379 53.2028V55.6889L10.2662 64.288L10.4563 64.7998L33.7379 56.2739V69.0993L22.7406 82.261L23.1647 82.612L33.7379 69.9621V70.0206H42.5124L35.4197 89.6462L35.9462 89.8364L43.112 70.0352H46.2855L42.5271 91.5913L43.0682 91.679L46.8412 70.0352H49.8099L49.8538 92.264H50.4095L50.3656 70.0352H51.2869C51.9743 70.0352 52.6616 70.0352 53.3343 70.006L57.1951 91.6498L57.7362 91.5474L53.89 69.9914C53.7584 69.9914 53.6414 69.9914 53.5098 69.9914C54.709 69.9621 55.8643 69.889 57.005 69.7866L64.3171 89.7632L64.8289 89.5731L57.5607 69.7281C58.7014 69.5965 59.8128 69.4357 60.8658 69.2017L71.0003 86.6775L71.4829 86.3997L61.4215 69.0701C62.6207 68.7776 63.7467 68.3973 64.785 67.9147L77.0547 82.4804L77.4788 82.1294L65.2969 67.6808C66.4083 67.1104 67.3881 66.4231 68.251 65.5749L82.2902 77.3035L82.6411 76.8794L68.6458 65.18C69.4355 64.3172 70.0936 63.3081 70.5908 62.1236L86.5312 71.2929L86.809 70.8103L70.7956 61.6117C70.9564 61.2023 71.1027 60.7635 71.2197 60.3102C71.8193 58.0288 71.7315 55.8644 71.2197 53.9633L91.6204 57.517L91.7081 56.9759L71.0442 53.3783C70.6493 52.1938 70.0644 51.1408 69.3624 50.2341L92.2931 50.1903H92.2492ZM52.2229 47.7626L51.945 47.9966C49.4882 48.8595 47.6748 49.4737 47.1629 48.6693C46.344 47.397 51.1992 46.1832 52.6324 45.8761C53.6122 45.6714 54.5189 45.4082 55.3671 45.1011L52.2083 47.7626H52.2229ZM52.0913 47.9528L51.9743 47.9966L52.062 47.9674H52.0913V47.9528ZM50.5265 67.4614H41.3279L41.3571 29.9797H48.4791C53.3051 29.9797 56.4346 32.5681 56.4346 36.3412C56.4346 40.1142 53.9632 41.5035 50.3217 43.156C49.1079 43.6971 47.8649 44.2675 46.6803 44.9694C43.9602 46.5781 44.3551 48.801 44.94 49.9855C45.5543 51.2432 47.9234 52.6471 52.0328 51.2578C60.8511 48.2891 64.2439 54.0072 64.2439 57.9557C64.2439 65.5749 58.1018 67.8563 50.5265 67.4614Z" fill="#035F1D"/>
<path d="M33.6941 49.7515L7.73618 49.81V50.3657L33.6941 50.3072V49.7515Z" fill="#035F1D"/>
<path d="M86.692 29.029L86.4142 28.5464L54.241 47.2068C54.5774 47.1044 54.8991 46.9875 55.2501 46.8851C55.6011 46.7827 55.9667 46.7096 56.3323 46.6365L86.692 29.029Z" fill="#035F1D"/>
<path d="M33.6941 59.1401L13.308 70.9565L13.5858 71.4391L33.6941 59.769V59.1401Z" fill="#035F1D"/>
<path d="M33.6794 63.3813L17.5051 77.0111L17.8561 77.4352L33.6794 64.0979V63.3813Z" fill="#035F1D"/>
<path d="M38.1691 70.0205L28.7072 86.5019L29.1898 86.7798L38.8125 70.0205H38.1691Z" fill="#035F1D"/>
<path d="M50.2194 27.4351L50.1755 7.75098H49.6198L49.6636 27.4351C49.8538 27.4351 50.0293 27.4351 50.2194 27.4351Z" fill="#035F1D"/>
<path d="M50 3.04199C24.1006 3.04199 3.04182 24.1008 3.04182 50.0002C3.04182 75.8996 24.1152 96.9584 50 96.9584C75.8848 96.9584 96.9582 75.8996 96.9582 50.0002C96.9582 24.1008 75.8848 3.04199 50 3.04199ZM50 95.1157C25.1243 95.1157 4.88447 74.8759 4.88447 50.0002C4.88447 25.1245 25.1243 4.88464 50 4.88464C74.8757 4.88464 95.1155 25.1245 95.1155 50.0002C95.1155 74.8759 74.8757 95.1157 50 95.1157Z" fill="#035F1D"/>
</g>
<defs>
<clipPath id="clip0_602_1000">
<rect width="100" height="100" fill="white"/>
</clipPath>
</defs>
</svg>
